<?xml version="1.0" encoding="UTF-8" standalone="no"?>
<!-- Created with Inkscape (http://www.inkscape.org/) -->

<svg
   width="210mm"
   height="297mm"
   viewBox="0 0 210 297"
   version="1.1"
   id="svg1"
   inkscape:version="1.3.2 (091e20e, 2023-11-25, custom)"
   sodipodi:docname="zīmējums.svg"
   xmlns:inkscape="http://www.inkscape.org/namespaces/inkscape"
   xmlns:sodipodi="http://sodipodi.sourceforge.net/DTD/sodipodi-0.dtd"
   xmlns:xlink="http://www.w3.org/1999/xlink"
   xmlns="http://www.w3.org/2000/svg"
   xmlns:svg="http://www.w3.org/2000/svg">
  <sodipodi:namedview
     id="namedview1"
     pagecolor="#ffffff"
     bordercolor="#000000"
     borderopacity="0.25"
     inkscape:showpageshadow="2"
     inkscape:pageopacity="0.0"
     inkscape:pagecheckerboard="0"
     inkscape:deskcolor="#d1d1d1"
     inkscape:document-units="mm"
     inkscape:zoom="0.70710678"
     inkscape:cx="560.02857"
     inkscape:cy="589.01995"
     inkscape:window-width="1920"
     inkscape:window-height="1017"
     inkscape:window-x="-8"
     inkscape:window-y="-8"
     inkscape:window-maximized="1"
     inkscape:current-layer="layer1" />
  <defs
     id="defs1" />
  <g
     inkscape:label="Slānis 1"
     inkscape:groupmode="layer"
     id="layer1">
    <g
       id="g49">
      <rect
         style="fill:#fc0000;fill-opacity:1;fill-rule:evenodd;stroke-width:0.249993"
         id="rect2"
         width="209.69418"
         height="296.97626"
         x="0.36216623"
         y="0.36216626"
         ry="0" />
    </g>
    <path
       id="path42"
       style="fill:none;fill-rule:evenodd;stroke:#000000;stroke-width:2.015"
       d="m 105.62359,154.81656 c -7.684425,-7.20196 6.02203,-13.80064 12.09978,-12.63515 16.47035,3.15839 19.66905,23.83393 13.44424,36.57541 -11.13472,22.79153 -41.571905,26.24051 -61.843375,13.96521 C 39.575039,174.70753 35.748309,134.0712 54.535539,106.93602 79.575965,70.769099 131.61863,66.662259 166.12251,91.640769 209.54211,123.07368 214.00931,185.54318 182.25566,226.63734 143.79773,276.40789 69.477605,281.13542 20.925099,243.26265 -36.292352,198.6309 -41.380352,114.01217 3.447489,59.055499 55.20303,-4.3941409 151.97953,-9.7323409 214.52164,41.100138 285.58597,98.859259 291.28927,205.73703 233.3437,274.51787 168.33754,351.67957 49.030779,357.62529 -27.474031,293.80327 -112.40888,222.94873 -118.72554,93.760699 -47.640562,11.174969" />
    <path
       sodipodi:type="star"
       style="fill:#fffa09;fill-opacity:1;fill-rule:evenodd;stroke-width:0.264583"
       id="path43"
       inkscape:flatsided="false"
       sodipodi:sides="5"
       sodipodi:cx="45.649635"
       sodipodi:cy="92.795975"
       sodipodi:r1="30.013596"
       sodipodi:r2="15.006796"
       sodipodi:arg1="2.5155461"
       sodipodi:arg2="3.1438647"
       inkscape:rounded="0"
       inkscape:randomized="0"
       d="M 21.328108,110.38231 30.642878,92.761879 21.40827,75.099304 41.04472,78.513164 54.989175,64.272495 57.810398,84.002809 75.663153,92.864165 57.770316,101.64431 54.85947,121.3616 40.979865,107.05771 Z"
       inkscape:transform-center-x="-4.4128817"
       inkscape:transform-center-y="0.032673268"
       transform="matrix(1.5505586,0,0,1.5505586,-5.7555352,-48.856158)" />
    <path
       sodipodi:type="star"
       style="fill:#fffa09;fill-opacity:1;fill-rule:evenodd;stroke-width:0.264583"
       id="path44"
       inkscape:flatsided="false"
       sodipodi:sides="5"
       sodipodi:cx="152.29018"
       sodipodi:cy="138.81979"
       sodipodi:r1="26.78702"
       sodipodi:r2="13.393509"
       sodipodi:arg1="2.4253908"
       sodipodi:arg2="3.0537093"
       inkscape:rounded="0"
       inkscape:randomized="0"
       d="m 132.0846,156.40613 6.86376,-16.41078 -9.62765,-14.95773 17.7286,1.45661 11.25053,-13.77862 4.09312,17.31102 16.58086,6.44206 -15.19891,9.24219 -1.003,17.76003 -13.48657,-11.59903 z"
       inkscape:transform-center-x="-1.4092576"
       inkscape:transform-center-y="-0.55133146"
       transform="matrix(0.75885346,0,0,0.75885346,13.973086,45.781461)" />
    <path
       sodipodi:type="star"
       style="fill:#fffa09;fill-opacity:1;fill-rule:evenodd;stroke-width:0.264583"
       id="path45"
       inkscape:flatsided="false"
       sodipodi:sides="5"
       sodipodi:cx="81.19648"
       sodipodi:cy="196.44308"
       sodipodi:r1="23.114349"
       sodipodi:r2="11.557174"
       sodipodi:arg1="-0.5070985"
       sodipodi:arg2="0.12122003"
       inkscape:rounded="0"
       inkscape:randomized="0"
       d="m 101.40206,185.21776 -8.733215,12.62286 5.447415,14.3503 -14.703757,-4.40511 -11.9646,9.61529 -0.354211,-15.34536 -12.841945,-8.40772 14.484843,-5.07885 4.027842,-14.81155 9.306336,12.20646 z"
       inkscape:transform-center-x="0.74724813"
       inkscape:transform-center-y="-0.47125171"
       transform="matrix(0.5456045,0,0,0.5456045,42.18478,89.805827)" />
    <path
       sodipodi:type="star"
       style="fill:#fffa09;fill-opacity:1;fill-rule:evenodd;stroke-width:0.264583"
       id="path46"
       inkscape:flatsided="false"
       sodipodi:sides="5"
       sodipodi:cx="135.45219"
       sodipodi:cy="13.844561"
       sodipodi:r1="27.475931"
       sodipodi:r2="13.737964"
       sodipodi:arg1="2.0831858"
       sodipodi:arg2="2.7115043"
       inkscape:rounded="0"
       inkscape:randomized="0"
       d="m 121.98181,37.79191 0.98355,-18.21929 -14.45103,-11.1390183 17.63151,-4.6946568 6.12823,-17.1858899 9.91332,15.3178324 18.23847,0.517554 -11.50474,14.1615976 5.14378,17.505756 -17.02364,-6.565483 z"
       inkscape:transform-center-x="1.5988782"
       inkscape:transform-center-y="-2.7221838"
       transform="matrix(1.6280244,0,0,1.6280244,-10.948795,2.8323497)" />
    <path
       sodipodi:type="star"
       style="fill:#fffa09;fill-opacity:1;fill-rule:evenodd;stroke-width:0.264583"
       id="path47"
       inkscape:flatsided="false"
       sodipodi:sides="5"
       sodipodi:cx="143.6841"
       sodipodi:cy="248.45374"
       sodipodi:r1="37.119072"
       sodipodi:r2="18.559534"
       sodipodi:arg1="-1.8255546"
       sodipodi:arg2="-1.1972361"
       inkscape:rounded="0"
       inkscape:randomized="0"
       d="m 134.32966,212.53271 16.12741,18.64147 24.49927,-2.71725 -12.74544,21.09861 10.15494,22.46052 -24.00453,-5.60181 -18.22317,16.5986 -2.09016,-24.56071 -21.41749,-12.20202 22.71274,-9.57754 z"
       inkscape:transform-center-x="2.8906807"
       inkscape:transform-center-y="-0.68095692"
       transform="translate(1.122532,6.7351921)" />
    <path
       sodipodi:type="star"
       style="fill:#fffa09;fill-opacity:1;fill-rule:evenodd;stroke-width:0.264583"
       id="path48"
       inkscape:flatsided="false"
       sodipodi:sides="5"
       sodipodi:cx="1.122532"
       sodipodi:cy="267.91098"
       sodipodi:r1="78.656487"
       sodipodi:r2="39.328243"
       sodipodi:arg1="0.82914129"
       sodipodi:arg2="1.4574598"
       inkscape:rounded="0"
       inkscape:randomized="0"
       d="M 54.255711,325.90846 5.5703221,306.9869 l -43.1876201,29.37894 2.95086,-52.14964 -41.286741,-31.99527 50.509121,-13.30869 17.6710114,-49.15311 28.2654926,43.92442 52.208027,1.61698 -33.040086,40.45548 z"
       inkscape:transform-center-x="2.7488852"
       inkscape:transform-center-y="-4.8484961"
       transform="translate(-16.83798,28.437478)" />
    <text
       xml:space="preserve"
       style="font-size:25.4px;fill:#003fda;fill-opacity:1;fill-rule:evenodd;stroke:#200acf;stroke-width:0;stroke-dasharray:none;stroke-opacity:1;-inkscape-font-specification:Broadway;font-family:Broadway;font-weight:normal;font-style:normal;font-stretch:normal;font-variant:normal"
       id="text48"
       transform="translate(0.37418472,-0.37417753)"><textPath
         xlink:href="#path42"
         id="textPath48"><tspan
           id="tspan48"
           style="font-size:25.4px;fill:#003fda;fill-opacity:1;stroke:#200acf;stroke-width:0;stroke-dasharray:none;stroke-opacity:1;-inkscape-font-specification:Broadway;font-family:Broadway;font-weight:normal;font-style:normal;font-stretch:normal;font-variant:normal">Kā padarīt savus datus drošus</tspan></textPath></text>
  </g>
</svg>
